REM MD5 bad73e9cb1d98ece556403ec7f2394ef
FILE "Official U.S. PlayStation Magazine Demo Disc 44 (USA).bin" BINARY
  TRACK 01 MODE2/2352
    INDEX 01 00:00:00
  TRACK 02 AUDIO
    INDEX 00 59:15:39
    INDEX 01 59:17:39
  TRACK 03 AUDIO
    INDEX 00 60:10:29
    INDEX 01 60:12:29
REM LEADOUT 60:18:25
